# xmcd
#
# Track frame offsets: 
#        150
#        15319
#        31896
#        44337
#        62090
#        81667
#        99594
#        118068
#        133971
#        150174
#        164727
#        181818
#        204845
#        221197
#
# Disc length: 3180 seconds
#
# Revision: 0
# Processed by: cddbd v1.5.2PL0 Copyright (c) Steve Scherf et al.
# Submitted via: ExactAudioCopy v1.0b3
#
DISCID=bf0c6a0e
DTITLE=Daniel Bedingfield - Gotta Get Thru This
DYEAR=2002
DGENRE=Pop
TTITLE0=Blown It Again
TTITLE1=James Dean (i Wanna Know)
TTITLE2=Gotta Get Thru This
TTITLE3=Right Girl
TTITLE4=If You're Not The One
TTITLE5=He Don't Love You Like I Love You
TTITLE6=I Can't Read You
TTITLE7=Friday
TTITLE8=Honest Questions
TTITLE9=Girlfriend
TTITLE10=Without The Girl
TTITLE11=Inflate My Ego
TTITLE12=Gotta Get Thru This (acoustic Version)
TTITLE13=Never Gonna Leave Your Side
EXTD=
EXTT0=
EXTT1=
EXTT2=
EXTT3=
EXTT4=
EXTT5=
EXTT6=
EXTT7=
EXTT8=
EXTT9=
EXTT10=
EXTT11=
EXTT12=
EXTT13=
PLAYORDER=
